<mxfile host="Electron" agent="Mozilla/5.0 (Windows NT 10.0; Win64; x64) AppleWebKit/537.36 (KHTML, like Gecko) draw.io/26.0.4 Chrome/128.0.6613.186 Electron/32.2.5 Safari/537.36" version="26.0.4">
  <diagram name="Page-1" id="l-0j0KC-BhnjsglJcReB">
    <mxGraphModel dx="1434" dy="836" grid="1" gridSize="10" guides="1" tooltips="1" connect="1" arrows="1" fold="1" page="1" pageScale="1" pageWidth="850" pageHeight="1100" math="0" shadow="0">
      <root>
        <mxCell id="0" />
        <mxCell id="1" parent="0" />
        <mxCell id="xJnupG2DMD7EftUhoylg-49" value="" style="group" vertex="1" connectable="0" parent="1">
          <mxGeometry x="329" y="423" width="168" height="220" as="geometry" />
        </mxCell>
        <mxCell id="xJnupG2DMD7EftUhoylg-22" value="" style="shape=internalStorage;whiteSpace=wrap;html=1;backgroundOutline=1;" vertex="1" parent="xJnupG2DMD7EftUhoylg-49">
          <mxGeometry x="1" width="160" height="220" as="geometry" />
        </mxCell>
        <mxCell id="xJnupG2DMD7EftUhoylg-23" value="employee" style="text;html=1;align=center;verticalAlign=middle;whiteSpace=wrap;rounded=0;" vertex="1" parent="xJnupG2DMD7EftUhoylg-49">
          <mxGeometry x="21" width="140" height="20" as="geometry" />
        </mxCell>
        <mxCell id="xJnupG2DMD7EftUhoylg-24" value="PK" style="text;html=1;align=center;verticalAlign=middle;whiteSpace=wrap;rounded=0;" vertex="1" parent="xJnupG2DMD7EftUhoylg-49">
          <mxGeometry x="1" y="21" width="20" height="29" as="geometry" />
        </mxCell>
        <mxCell id="xJnupG2DMD7EftUhoylg-25" value="employee_id" style="text;html=1;align=left;verticalAlign=middle;whiteSpace=wrap;rounded=0;flipV=1;flipH=0;" vertex="1" parent="xJnupG2DMD7EftUhoylg-49">
          <mxGeometry x="28" y="21" width="140" height="30" as="geometry" />
        </mxCell>
        <mxCell id="xJnupG2DMD7EftUhoylg-26" value="pet_store_id" style="text;html=1;align=left;verticalAlign=middle;whiteSpace=wrap;rounded=0;spacing=10;fontSize=12;flipV=1;flipH=0;" vertex="1" parent="xJnupG2DMD7EftUhoylg-49">
          <mxGeometry x="21" y="60" width="140" height="30" as="geometry" />
        </mxCell>
        <mxCell id="xJnupG2DMD7EftUhoylg-27" value="employee_first_name" style="text;html=1;align=left;verticalAlign=middle;whiteSpace=wrap;rounded=0;spacing=10;fontSize=12;flipV=0;flipH=0;" vertex="1" parent="xJnupG2DMD7EftUhoylg-49">
          <mxGeometry x="21" y="88" width="140" height="30" as="geometry" />
        </mxCell>
        <mxCell id="xJnupG2DMD7EftUhoylg-29" value="employee_job_title" style="text;html=1;align=left;verticalAlign=middle;whiteSpace=wrap;rounded=0;spacing=10;fontSize=12;flipV=0;flipH=0;" vertex="1" parent="xJnupG2DMD7EftUhoylg-49">
          <mxGeometry x="22" y="170" width="140" height="30" as="geometry" />
        </mxCell>
        <mxCell id="xJnupG2DMD7EftUhoylg-30" value="employee_phone" style="text;html=1;align=left;verticalAlign=middle;whiteSpace=wrap;rounded=0;spacing=10;fontSize=12;flipV=0;flipH=0;" vertex="1" parent="xJnupG2DMD7EftUhoylg-49">
          <mxGeometry x="23" y="143" width="130" height="30" as="geometry" />
        </mxCell>
        <mxCell id="xJnupG2DMD7EftUhoylg-31" value="" style="endArrow=none;html=1;rounded=0;" edge="1" parent="xJnupG2DMD7EftUhoylg-49">
          <mxGeometry width="50" height="50" relative="1" as="geometry">
            <mxPoint y="51" as="sourcePoint" />
            <mxPoint x="160" y="51" as="targetPoint" />
          </mxGeometry>
        </mxCell>
        <mxCell id="xJnupG2DMD7EftUhoylg-33" value="employee_last_name" style="text;html=1;align=left;verticalAlign=middle;whiteSpace=wrap;rounded=0;spacing=10;fontSize=12;flipV=0;flipH=0;" vertex="1" parent="xJnupG2DMD7EftUhoylg-49">
          <mxGeometry x="22" y="115" width="140" height="30" as="geometry" />
        </mxCell>
        <mxCell id="xJnupG2DMD7EftUhoylg-34" style="edgeStyle=orthogonalEdgeStyle;rounded=0;orthogonalLoop=1;jettySize=auto;html=1;exitX=0.5;exitY=1;exitDx=0;exitDy=0;" edge="1" parent="xJnupG2DMD7EftUhoylg-49" source="xJnupG2DMD7EftUhoylg-22" target="xJnupG2DMD7EftUhoylg-22">
          <mxGeometry relative="1" as="geometry" />
        </mxCell>
        <mxCell id="xJnupG2DMD7EftUhoylg-35" value="FK" style="text;html=1;align=center;verticalAlign=middle;whiteSpace=wrap;rounded=0;" vertex="1" parent="xJnupG2DMD7EftUhoylg-49">
          <mxGeometry x="1" y="60" width="20" height="30" as="geometry" />
        </mxCell>
        <mxCell id="xJnupG2DMD7EftUhoylg-50" value="" style="group" vertex="1" connectable="0" parent="1">
          <mxGeometry x="39" y="200" width="166" height="220" as="geometry" />
        </mxCell>
        <mxCell id="xJnupG2DMD7EftUhoylg-7" value="" style="shape=internalStorage;whiteSpace=wrap;html=1;backgroundOutline=1;" vertex="1" parent="xJnupG2DMD7EftUhoylg-50">
          <mxGeometry x="1" width="160" height="220" as="geometry" />
        </mxCell>
        <mxCell id="xJnupG2DMD7EftUhoylg-8" value="pet_store" style="text;html=1;align=center;verticalAlign=middle;whiteSpace=wrap;rounded=0;" vertex="1" parent="xJnupG2DMD7EftUhoylg-50">
          <mxGeometry x="21" width="140" height="20" as="geometry" />
        </mxCell>
        <mxCell id="xJnupG2DMD7EftUhoylg-9" value="PK" style="text;html=1;align=center;verticalAlign=middle;whiteSpace=wrap;rounded=0;" vertex="1" parent="xJnupG2DMD7EftUhoylg-50">
          <mxGeometry x="1" y="21" width="20" height="30" as="geometry" />
        </mxCell>
        <mxCell id="xJnupG2DMD7EftUhoylg-11" value="pet_store_id" style="text;html=1;align=left;verticalAlign=middle;whiteSpace=wrap;rounded=0;" vertex="1" parent="xJnupG2DMD7EftUhoylg-50">
          <mxGeometry x="23" y="21" width="140" height="30" as="geometry" />
        </mxCell>
        <mxCell id="xJnupG2DMD7EftUhoylg-14" value="pet_store_name" style="text;html=1;align=left;verticalAlign=middle;whiteSpace=wrap;rounded=0;flipH=1;" vertex="1" parent="xJnupG2DMD7EftUhoylg-50">
          <mxGeometry x="26" y="60" width="140" height="30" as="geometry" />
        </mxCell>
        <mxCell id="xJnupG2DMD7EftUhoylg-15" value="pet_store_address" style="text;html=1;align=left;verticalAlign=middle;whiteSpace=wrap;rounded=0;flipH=1;" vertex="1" parent="xJnupG2DMD7EftUhoylg-50">
          <mxGeometry x="26" y="90" width="140" height="30" as="geometry" />
        </mxCell>
        <mxCell id="xJnupG2DMD7EftUhoylg-16" value="pet_store_zip" style="text;html=1;align=left;verticalAlign=middle;whiteSpace=wrap;rounded=0;flipH=1;" vertex="1" parent="xJnupG2DMD7EftUhoylg-50">
          <mxGeometry x="26" y="150" width="140" height="30" as="geometry" />
        </mxCell>
        <mxCell id="xJnupG2DMD7EftUhoylg-17" value="pet_store_city" style="text;html=1;align=left;verticalAlign=middle;whiteSpace=wrap;rounded=0;flipH=1;" vertex="1" parent="xJnupG2DMD7EftUhoylg-50">
          <mxGeometry x="26" y="120" width="140" height="30" as="geometry" />
        </mxCell>
        <mxCell id="xJnupG2DMD7EftUhoylg-18" value="pet_store_phone" style="text;html=1;align=left;verticalAlign=middle;whiteSpace=wrap;rounded=0;flipH=1;" vertex="1" parent="xJnupG2DMD7EftUhoylg-50">
          <mxGeometry x="26" y="180" width="140" height="30" as="geometry" />
        </mxCell>
        <mxCell id="xJnupG2DMD7EftUhoylg-20" value="" style="endArrow=none;html=1;rounded=0;" edge="1" parent="xJnupG2DMD7EftUhoylg-50">
          <mxGeometry width="50" height="50" relative="1" as="geometry">
            <mxPoint y="51" as="sourcePoint" />
            <mxPoint x="160" y="51" as="targetPoint" />
          </mxGeometry>
        </mxCell>
        <mxCell id="xJnupG2DMD7EftUhoylg-63" value="pet_store_customer" style="swimlane;whiteSpace=wrap;html=1;dashed=1;" vertex="1" parent="1">
          <mxGeometry x="300" y="123" width="170" height="97" as="geometry" />
        </mxCell>
        <mxCell id="xJnupG2DMD7EftUhoylg-65" value="" style="endArrow=none;dashed=1;html=1;rounded=0;" edge="1" parent="xJnupG2DMD7EftUhoylg-63">
          <mxGeometry width="50" height="50" relative="1" as="geometry">
            <mxPoint x="40" y="101" as="sourcePoint" />
            <mxPoint x="40" y="21" as="targetPoint" />
          </mxGeometry>
        </mxCell>
        <mxCell id="xJnupG2DMD7EftUhoylg-71" value="" style="group" vertex="1" connectable="0" parent="xJnupG2DMD7EftUhoylg-63">
          <mxGeometry y="31" width="200" height="63" as="geometry" />
        </mxCell>
        <mxCell id="xJnupG2DMD7EftUhoylg-72" value="" style="group" vertex="1" connectable="0" parent="xJnupG2DMD7EftUhoylg-71">
          <mxGeometry y="33" width="170" height="30" as="geometry" />
        </mxCell>
        <mxCell id="xJnupG2DMD7EftUhoylg-67" value="FK2" style="text;html=1;align=center;verticalAlign=middle;whiteSpace=wrap;rounded=0;" vertex="1" parent="xJnupG2DMD7EftUhoylg-72">
          <mxGeometry width="34" height="30" as="geometry" />
        </mxCell>
        <mxCell id="xJnupG2DMD7EftUhoylg-69" value="pet_store_id" style="text;html=1;align=center;verticalAlign=middle;whiteSpace=wrap;rounded=0;" vertex="1" parent="xJnupG2DMD7EftUhoylg-72">
          <mxGeometry x="34" width="136" height="30" as="geometry" />
        </mxCell>
        <mxCell id="xJnupG2DMD7EftUhoylg-73" value="" style="group" vertex="1" connectable="0" parent="xJnupG2DMD7EftUhoylg-71">
          <mxGeometry width="194.67" height="30" as="geometry" />
        </mxCell>
        <mxCell id="xJnupG2DMD7EftUhoylg-66" value="FK1" style="text;html=1;align=center;verticalAlign=middle;whiteSpace=wrap;rounded=0;" vertex="1" parent="xJnupG2DMD7EftUhoylg-73">
          <mxGeometry width="40" height="30" as="geometry" />
        </mxCell>
        <mxCell id="xJnupG2DMD7EftUhoylg-70" value="customer_id" style="text;html=1;align=center;verticalAlign=middle;whiteSpace=wrap;rounded=0;" vertex="1" parent="xJnupG2DMD7EftUhoylg-73">
          <mxGeometry x="40" width="130" height="29" as="geometry" />
        </mxCell>
        <mxCell id="xJnupG2DMD7EftUhoylg-91" value="" style="curved=1;endArrow=ERzeroToMany;html=1;rounded=0;startArrow=ERmandOne;startFill=0;endFill=0;" edge="1" parent="xJnupG2DMD7EftUhoylg-71" source="xJnupG2DMD7EftUhoylg-77">
          <mxGeometry width="50" height="50" relative="1" as="geometry">
            <mxPoint x="220" y="56.5" as="sourcePoint" />
            <mxPoint x="170" y="6.5" as="targetPoint" />
            <Array as="points">
              <mxPoint x="260" y="146" />
              <mxPoint x="220" y="116" />
              <mxPoint x="250" y="36" />
            </Array>
          </mxGeometry>
        </mxCell>
        <mxCell id="xJnupG2DMD7EftUhoylg-75" value="" style="shape=internalStorage;whiteSpace=wrap;html=1;backgroundOutline=1;container=0;" vertex="1" parent="1">
          <mxGeometry x="581" y="260" width="160" height="160" as="geometry" />
        </mxCell>
        <mxCell id="xJnupG2DMD7EftUhoylg-76" value="customer" style="text;html=1;align=center;verticalAlign=middle;whiteSpace=wrap;rounded=0;container=0;" vertex="1" parent="1">
          <mxGeometry x="601" y="260" width="140" height="20" as="geometry" />
        </mxCell>
        <mxCell id="xJnupG2DMD7EftUhoylg-77" value="PK" style="text;html=1;align=center;verticalAlign=middle;whiteSpace=wrap;rounded=0;container=0;" vertex="1" parent="1">
          <mxGeometry x="581" y="281" width="20" height="30" as="geometry" />
        </mxCell>
        <mxCell id="xJnupG2DMD7EftUhoylg-78" value="customer_id" style="text;html=1;align=left;verticalAlign=middle;whiteSpace=wrap;rounded=0;container=0;" vertex="1" parent="1">
          <mxGeometry x="606" y="281" width="140" height="30" as="geometry" />
        </mxCell>
        <mxCell id="xJnupG2DMD7EftUhoylg-79" value="customer_first_name" style="text;html=1;align=left;verticalAlign=middle;whiteSpace=wrap;rounded=0;flipH=1;container=0;" vertex="1" parent="1">
          <mxGeometry x="606" y="320" width="140" height="30" as="geometry" />
        </mxCell>
        <mxCell id="xJnupG2DMD7EftUhoylg-80" value="customer_last_name" style="text;html=1;align=left;verticalAlign=middle;whiteSpace=wrap;rounded=0;flipH=1;container=0;" vertex="1" parent="1">
          <mxGeometry x="606" y="350" width="140" height="30" as="geometry" />
        </mxCell>
        <mxCell id="xJnupG2DMD7EftUhoylg-82" value="customer_email" style="text;html=1;align=left;verticalAlign=middle;whiteSpace=wrap;rounded=0;flipH=1;container=0;" vertex="1" parent="1">
          <mxGeometry x="606" y="380" width="140" height="30" as="geometry" />
        </mxCell>
        <mxCell id="xJnupG2DMD7EftUhoylg-84" value="" style="endArrow=none;html=1;rounded=0;" edge="1" parent="1">
          <mxGeometry width="50" height="50" relative="1" as="geometry">
            <mxPoint x="580" y="311" as="sourcePoint" />
            <mxPoint x="740" y="311" as="targetPoint" />
          </mxGeometry>
        </mxCell>
        <mxCell id="xJnupG2DMD7EftUhoylg-87" value="" style="endArrow=ERzeroToMany;html=1;rounded=0;edgeStyle=entityRelationEdgeStyle;startArrow=ERmandOne;startFill=0;endFill=0;exitX=1;exitY=0.5;exitDx=0;exitDy=0;dashed=1;" edge="1" parent="1">
          <mxGeometry width="50" height="50" relative="1" as="geometry">
            <mxPoint x="202" y="229" as="sourcePoint" />
            <mxPoint x="300" y="193" as="targetPoint" />
          </mxGeometry>
        </mxCell>
        <mxCell id="xJnupG2DMD7EftUhoylg-92" value="" style="curved=1;endArrow=ERzeroToMany;html=1;rounded=0;startArrow=none;startFill=0;endFill=0;entryX=0;entryY=0.5;entryDx=0;entryDy=0;" edge="1" parent="1" target="xJnupG2DMD7EftUhoylg-35">
          <mxGeometry width="50" height="50" relative="1" as="geometry">
            <mxPoint x="205" y="229.25" as="sourcePoint" />
            <mxPoint x="310" y="500" as="targetPoint" />
            <Array as="points">
              <mxPoint x="226" y="226.25" />
              <mxPoint x="266" y="256.25" />
              <mxPoint x="210" y="510" />
            </Array>
          </mxGeometry>
        </mxCell>
      </root>
    </mxGraphModel>
  </diagram>
</mxfile>
